{
    "asset" : {
        "generator" : "Khronos glTF Blender I/O v1.1.46",
        "version" : "2.0"
    },
    "scene" : 0,
    "scenes" : [
        {
            "name" : "Scene",
            "nodes" : [
                0
            ]
        }
    ],
    "nodes" : [
        {
            "mesh" : 0,
            "name" : "Buckle",
            "rotation" : [
                -0.40717509388923645,
                -0.4071750342845917,
                -0.5781076550483704,
                0.5781076550483704
            ],
            "scale" : [
                0.06766223162412643,
                0.7805252075195312,
                0.06766223162412643
            ],
            "translation" : [
                0.0006759464740753174,
                -5.404604911804199,
                -2.5561933517456055
            ]
        }
    ],
    "materials" : [
        {
            "doubleSided" : true,
            "emissiveFactor" : [
                0,
                0,
                0
            ],
            "name" : "metal",
            "normalTexture" : {
                "index" : 0,
                "scale" : 0.10000000149011612,
                "texCoord" : 0
            },
            "pbrMetallicRoughness" : {
                "baseColorTexture" : {
                    "index" : 1,
                    "texCoord" : 0
                },
                "metallicFactor" : 1,
                "roughnessFactor" : 0.15000000596046448
            }
        }
    ],
    "meshes" : [
        {
            "name" : "Cylinder.004",
            "primitives" : [
                {
                    "attributes" : {
                        "POSITION" : 0,
                        "NORMAL" : 1,
                        "TEXCOORD_0" : 2
                    },
                    "indices" : 3,
                    "material" : 0
                }
            ]
        }
    ],
    "textures" : [
        {
            "source" : 0
        },
        {
            "source" : 1
        }
    ],
    "images" : [
        {
            "bufferView" : 4,
            "mimeType" : "image/png",
            "name" : "TexturesCom_Metal_AluminumBrushed_1K_normal"
        },
        {
            "bufferView" : 5,
            "mimeType" : "image/png",
            "name" : "chrome"
        }
    ],
    "accessors" : [
        {
            "bufferView" : 0,
            "componentType" : 5126,
            "count" : 4939,
            "max" : [
                2.1094913482666016,
                0.9858773946762085,
                2.24935245513916
            ],
            "min" : [
                -2.109497308731079,
                -0.9858773946762085,
                -12.284029006958008
            ],
            "type" : "VEC3"
        },
        {
            "bufferView" : 1,
            "componentType" : 5126,
            "count" : 4939,
            "type" : "VEC3"
        },
        {
            "bufferView" : 2,
            "componentType" : 5126,
            "count" : 4939,
            "type" : "VEC2"
        },
        {
            "bufferView" : 3,
            "componentType" : 5123,
            "count" : 24300,
            "type" : "SCALAR"
        }
    ],
    "bufferViews" : [
        {
            "buffer" : 0,
            "byteLength" : 59268,
            "byteOffset" : 0
        },
        {
            "buffer" : 0,
            "byteLength" : 59268,
            "byteOffset" : 59268
        },
        {
            "buffer" : 0,
            "byteLength" : 39512,
            "byteOffset" : 118536
        },
        {
            "buffer" : 0,
            "byteLength" : 48600,
            "byteOffset" : 158048
        },
        {
            "buffer" : 0,
            "byteLength" : 393552,
            "byteOffset" : 206648
        },
        {
            "buffer" : 0,
            "byteLength" : 856243,
            "byteOffset" : 600200
        }
    ],
    "buffers" : [
        {
            "byteLength" : 1456444,
            "uri" : "data:application/octet-stream;base64,"
        }
    ]
}
