{
    "asset" : {
        "generator" : "Khronos glTF Blender I/O v1.1.46",
        "version" : "2.0"
    },
    "scene" : 0,
    "scenes" : [
        {
            "name" : "Scene",
            "nodes" : [
                0
            ]
        }
    ],
    "nodes" : [
        {
            "mesh" : 0,
            "name" : "StrapUp",
            "rotation" : [
                -0.1065433919429779,
                0,
                0,
                0.9943080544471741
            ],
            "scale" : [
                0.5895029902458191,
                0.1280159056186676,
                0.1280159056186676
            ],
            "translation" : [
                -0.0018203910440206528,
                1.6601707935333252,
                -0.2727090120315552
            ]
        }
    ],
    "materials" : [
        {
            "doubleSided" : true,
            "emissiveFactor" : [
                0,
                0,
                0
            ],
            "name" : "leather",
            "normalTexture" : {
                "index" : 0,
                "texCoord" : 0
            },
            "pbrMetallicRoughness" : {
                "baseColorTexture" : {
                    "index" : 1,
                    "texCoord" : 0
                },
                "metallicFactor" : 0,
                "roughnessFactor" : 1
            }
        }
    ],
    "meshes" : [
        {
            "name" : "Cube.005",
            "primitives" : [
                {
                    "attributes" : {
                        "POSITION" : 0,
                        "NORMAL" : 1,
                        "TEXCOORD_0" : 2
                    },
                    "indices" : 3,
                    "material" : 0
                }
            ]
        }
    ],
    "textures" : [
        {
            "source" : 0
        },
        {
            "source" : 0
        }
    ],
    "images" : [
        {
            "bufferView" : 4,
            "mimeType" : "image/png",
            "name" : "TexturesCom_Leather0095_M"
        }
    ],
    "accessors" : [
        {
            "bufferView" : 0,
            "componentType" : 5126,
            "count" : 24338,
            "max" : [
                1.1358699798583984,
                27.19905662536621,
                0.8058054447174072
            ],
            "min" : [
                -1.1358699798583984,
                -51.848663330078125,
                -30.554508209228516
            ],
            "type" : "VEC3"
        },
        {
            "bufferView" : 1,
            "componentType" : 5126,
            "count" : 24338,
            "type" : "VEC3"
        },
        {
            "bufferView" : 2,
            "componentType" : 5126,
            "count" : 24338,
            "type" : "VEC2"
        },
        {
            "bufferView" : 3,
            "componentType" : 5123,
            "count" : 122832,
            "type" : "SCALAR"
        }
    ],
    "bufferViews" : [
        {
            "buffer" : 0,
            "byteLength" : 292056,
            "byteOffset" : 0
        },
        {
            "buffer" : 0,
            "byteLength" : 292056,
            "byteOffset" : 292056
        },
        {
            "buffer" : 0,
            "byteLength" : 194704,
            "byteOffset" : 584112
        },
        {
            "buffer" : 0,
            "byteLength" : 245664,
            "byteOffset" : 778816
        },
        {
            "buffer" : 0,
            "byteLength" : 2110597,
            "byteOffset" : 1024480
        }
    ],
    "buffers" : [
        {
            "byteLength" : 3135080,
            "uri" : "data:application/octet-stream;base64,"
        }
    ]
}
