{
    "asset" : {
        "generator" : "Khronos glTF Blender I/O v1.1.46",
        "version" : "2.0"
    },
    "scene" : 0,
    "scenes" : [
        {
            "name" : "Scene",
            "nodes" : [
                0
            ]
        }
    ],
    "nodes" : [
        {
            "mesh" : 0,
            "name" : "BackSide",
            "rotation" : [
                0.7071067690849304,
                0,
                0,
                0.7071067690849304
            ]
        }
    ],
    "materials" : [
        {
            "doubleSided" : true,
            "name" : "metal",
            "pbrMetallicRoughness" : {}
        }
    ],
    "meshes" : [
        {
            "name" : "Circle.017",
            "primitives" : [
                {
                    "attributes" : {
                        "POSITION" : 0,
                        "NORMAL" : 1,
                        "TEXCOORD_0" : 2
                    },
                    "indices" : 3,
                    "material" : 0
                }
            ]
        }
    ],
    "accessors" : [
        {
            "bufferView" : 0,
            "componentType" : 5126,
            "count" : 4518,
            "max" : [
                1.1689115762710571,
                -0.26518431305885315,
                1.1593940258026123
            ],
            "min" : [
                -1.1689115762710571,
                -0.3527044951915741,
                -1.1593940258026123
            ],
            "type" : "VEC3"
        },
        {
            "bufferView" : 1,
            "componentType" : 5126,
            "count" : 4518,
            "type" : "VEC3"
        },
        {
            "bufferView" : 2,
            "componentType" : 5126,
            "count" : 4518,
            "type" : "VEC2"
        },
        {
            "bufferView" : 3,
            "componentType" : 5123,
            "count" : 23424,
            "type" : "SCALAR"
        }
    ],
    "bufferViews" : [
        {
            "buffer" : 0,
            "byteLength" : 54216,
            "byteOffset" : 0
        },
        {
            "buffer" : 0,
            "byteLength" : 54216,
            "byteOffset" : 54216
        },
        {
            "buffer" : 0,
            "byteLength" : 36144,
            "byteOffset" : 108432
        },
        {
            "buffer" : 0,
            "byteLength" : 46848,
            "byteOffset" : 144576
        }
    ],
    "buffers" : [
        {
            "byteLength" : 191424,
            "uri" : "data:application/octet-stream;base64,"
        }
    ]
}
