{
    "asset" : {
        "generator" : "Khronos glTF Blender I/O v1.1.46",
        "version" : "2.0"
    },
    "scene" : 0,
    "scenes" : [
        {
            "name" : "Scene",
            "nodes" : [
                0
            ]
        }
    ],
    "nodes" : [
        {
            "mesh" : 0,
            "name" : "Base",
            "rotation" : [
                0.7071067690849304,
                0,
                0,
                0.7071067690849304
            ]
        }
    ],
    "materials" : [
        {
            "doubleSided" : true,
            "name" : "metal",
            "pbrMetallicRoughness" : {}
        }
    ],
    "meshes" : [
        {
            "name" : "Circle.003",
            "primitives" : [
                {
                    "attributes" : {
                        "POSITION" : 0,
                        "NORMAL" : 1,
                        "TEXCOORD_0" : 2
                    },
                    "indices" : 3,
                    "material" : 0
                }
            ]
        }
    ],
    "accessors" : [
        {
            "bufferView" : 0,
            "componentType" : 5126,
            "count" : 7538,
            "max" : [
                1.1688593626022339,
                0.15380047261714935,
                1.496198296546936
            ],
            "min" : [
                -1.1688593626022339,
                -0.4504891335964203,
                -1.496198296546936
            ],
            "type" : "VEC3"
        },
        {
            "bufferView" : 1,
            "componentType" : 5126,
            "count" : 7538,
            "type" : "VEC3"
        },
        {
            "bufferView" : 2,
            "componentType" : 5126,
            "count" : 7538,
            "type" : "VEC2"
        },
        {
            "bufferView" : 3,
            "componentType" : 5123,
            "count" : 33096,
            "type" : "SCALAR"
        }
    ],
    "bufferViews" : [
        {
            "buffer" : 0,
            "byteLength" : 90456,
            "byteOffset" : 0
        },
        {
            "buffer" : 0,
            "byteLength" : 90456,
            "byteOffset" : 90456
        },
        {
            "buffer" : 0,
            "byteLength" : 60304,
            "byteOffset" : 180912
        },
        {
            "buffer" : 0,
            "byteLength" : 66192,
            "byteOffset" : 241216
        }
    ],
    "buffers" : [
        {
            "byteLength" : 307408,
            "uri" : "data:application/octet-stream;base64,"
        }
    ]
}
