{
    "asset" : {
        "generator" : "Khronos glTF Blender I/O v1.1.46",
        "version" : "2.0"
    },
    "scene" : 0,
    "scenes" : [
        {
            "name" : "Scene",
            "nodes" : [
                0
            ]
        }
    ],
    "nodes" : [
        {
            "mesh" : 0,
            "name" : "Ring",
            "rotation" : [
                0.7071068286895752,
                0,
                0,
                0.7071068286895752
            ]
        }
    ],
    "animations" : [
        {
            "channels" : [
                {
                    "sampler" : 0,
                    "target" : {
                        "node" : 0,
                        "path" : "translation"
                    }
                }
            ],
            "name" : "RingAction.001",
            "samplers" : [
                {
                    "input" : 4,
                    "interpolation" : "LINEAR",
                    "output" : 5
                }
            ]
        }
    ],
    "meshes" : [
        {
            "name" : "Circle.002",
            "primitives" : [
                {
                    "attributes" : {
                        "POSITION" : 0,
                        "NORMAL" : 1,
                        "TEXCOORD_0" : 2
                    },
                    "indices" : 3
                }
            ]
        }
    ],
    "accessors" : [
        {
            "bufferView" : 0,
            "componentType" : 5126,
            "count" : 3359,
            "max" : [
                1.1598941087722778,
                0.31037700176239014,
                1.1600229740142822
            ],
            "min" : [
                -1.1598941087722778,
                0.1559903919696808,
                -1.1600229740142822
            ],
            "type" : "VEC3"
        },
        {
            "bufferView" : 1,
            "componentType" : 5126,
            "count" : 3359,
            "type" : "VEC3"
        },
        {
            "bufferView" : 2,
            "componentType" : 5126,
            "count" : 3359,
            "type" : "VEC2"
        },
        {
            "bufferView" : 3,
            "componentType" : 5123,
            "count" : 18816,
            "type" : "SCALAR"
        },
        {
            "bufferView" : 4,
            "componentType" : 5126,
            "count" : 80,
            "max" : [
                3.3333333333333335
            ],
            "min" : [
                0.041666666666666664
            ],
            "type" : "SCALAR"
        },
        {
            "bufferView" : 5,
            "componentType" : 5126,
            "count" : 80,
            "type" : "VEC3"
        }
    ],
    "bufferViews" : [
        {
            "buffer" : 0,
            "byteLength" : 40308,
            "byteOffset" : 0
        },
        {
            "buffer" : 0,
            "byteLength" : 40308,
            "byteOffset" : 40308
        },
        {
            "buffer" : 0,
            "byteLength" : 26872,
            "byteOffset" : 80616
        },
        {
            "buffer" : 0,
            "byteLength" : 37632,
            "byteOffset" : 107488
        },
        {
            "buffer" : 0,
            "byteLength" : 320,
            "byteOffset" : 145120
        },
        {
            "buffer" : 0,
            "byteLength" : 960,
            "byteOffset" : 145440
        }
    ],
    "buffers" : [
        {
            "byteLength" : 146400,
            "uri" : "data:application/octet-stream;base64,"
        }
    ]
}
