{
    "asset" : {
        "generator" : "Khronos glTF Blender I/O v1.1.46",
        "version" : "2.0"
    },
    "scene" : 0,
    "scenes" : [
        {
            "name" : "Scene",
            "nodes" : [
                0,
                1,
                2,
                3,
                4,
                5,
                6,
                7,
                8,
                9
            ]
        }
    ],
    "nodes" : [
        {
            "mesh" : 0,
            "name" : "Background",
            "rotation" : [
                0.7071067690849304,
                0,
                0,
                0.7071067690849304
            ],
            "scale" : [
                1.0413687229156494,
                1.0413687229156494,
                1.0413687229156494
            ],
            "translation" : [
                0,
                0,
                0.23318500816822052
            ]
        },
        {
            "mesh" : 1,
            "name" : "BackSide",
            "rotation" : [
                0.7071067690849304,
                0,
                0,
                0.7071067690849304
            ]
        },
        {
            "mesh" : 2,
            "name" : "Base",
            "rotation" : [
                0.7071067690849304,
                0,
                0,
                0.7071067690849304
            ]
        },
        {
            "mesh" : 3,
            "name" : "Buckle",
            "rotation" : [
                -0.40717509388923645,
                -0.4071750342845917,
                -0.5781076550483704,
                0.5781076550483704
            ],
            "scale" : [
                0.06766223162412643,
                0.7805252075195312,
                0.06766223162412643
            ],
            "translation" : [
                0.0006759464740753174,
                -5.404604911804199,
                -2.5561933517456055
            ]
        },
        {
            "mesh" : 4,
            "name" : "Decoration",
            "rotation" : [
                0,
                0,
                -0.258819043636322,
                0.9659258127212524
            ],
            "translation" : [
                0,
                0,
                0.2331850230693817
            ]
        },
        {
            "mesh" : 5,
            "name" : "DownPart",
            "rotation" : [
                0.2988912761211395,
                0,
                0,
                0.9542871713638306
            ],
            "scale" : [
                0.7664536833763123,
                0.12780314683914185,
                0.15536117553710938
            ],
            "translation" : [
                0.0033743875101208687,
                -4.578582763671875,
                -1.3707607984542847
            ]
        },
        {
            "mesh" : 6,
            "name" : "Glass",
            "rotation" : [
                0.7071067690849304,
                0,
                0,
                0.7071067690849304
            ],
            "scale" : [
                1.0390222072601318,
                1.0390222072601318,
                1.0390222072601318
            ],
            "translation" : [
                0,
                0,
                0.2908514738082886
            ]
        },
        {
            "mesh" : 7,
            "name" : "Ring",
            "rotation" : [
                0.7071067690849304,
                0,
                0,
                0.7071067690849304
            ]
        },
        {
            "mesh" : 8,
            "name" : "StrapDown",
            "rotation" : [
                -0.1065433919429779,
                0,
                0,
                0.9943080544471741
            ],
            "scale" : [
                0.5895029902458191,
                -0.1280159056186676,
                0.1280159056186676
            ],
            "translation" : [
                -0.0018203910440206528,
                -1.622389554977417,
                -0.18615394830703735
            ]
        },
        {
            "mesh" : 9,
            "name" : "StrapUp",
            "rotation" : [
                -0.1065433919429779,
                0,
                0,
                0.9943080544471741
            ],
            "scale" : [
                0.5895029902458191,
                0.1280159056186676,
                0.1280159056186676
            ],
            "translation" : [
                -0.0018203910440206528,
                1.6601707935333252,
                -0.2727090120315552
            ]
        }
    ],
    "materials" : [
        {
            "doubleSided" : true,
            "name" : "WatchNumb",
            "pbrMetallicRoughness" : {}
        },
        {
            "doubleSided" : true,
            "name" : "metal",
            "pbrMetallicRoughness" : {}
        },
        {
            "doubleSided" : true,
            "name" : "metal.001",
            "pbrMetallicRoughness" : {}
        },
        {
            "doubleSided" : true,
            "name" : "leather",
            "pbrMetallicRoughness" : {}
        },
        {
            "alphaCutoff" : 0.8268608450889587,
            "alphaMode" : "MASK",
            "doubleSided" : true,
            "name" : "Material.001",
            "pbrMetallicRoughness" : {}
        }
    ],
    "meshes" : [
        {
            "name" : "Circle.006",
            "primitives" : [
                {
                    "attributes" : {
                        "POSITION" : 0,
                        "NORMAL" : 1,
                        "TEXCOORD_0" : 2
                    },
                    "indices" : 3,
                    "material" : 0
                }
            ]
        },
        {
            "name" : "Circle.017",
            "primitives" : [
                {
                    "attributes" : {
                        "POSITION" : 4,
                        "NORMAL" : 5,
                        "TEXCOORD_0" : 6
                    },
                    "indices" : 7,
                    "material" : 1
                }
            ]
        },
        {
            "name" : "Circle.003",
            "primitives" : [
                {
                    "attributes" : {
                        "POSITION" : 8,
                        "NORMAL" : 9,
                        "TEXCOORD_0" : 10
                    },
                    "indices" : 11,
                    "material" : 1
                }
            ]
        },
        {
            "name" : "Cylinder.004",
            "primitives" : [
                {
                    "attributes" : {
                        "POSITION" : 12,
                        "NORMAL" : 13,
                        "TEXCOORD_0" : 14
                    },
                    "indices" : 15,
                    "material" : 1
                }
            ]
        },
        {
            "name" : "Cube.004",
            "primitives" : [
                {
                    "attributes" : {
                        "POSITION" : 16,
                        "NORMAL" : 17,
                        "TEXCOORD_0" : 18
                    },
                    "indices" : 19,
                    "material" : 2
                },
                {
                    "attributes" : {
                        "POSITION" : 20,
                        "NORMAL" : 21,
                        "TEXCOORD_0" : 22
                    },
                    "indices" : 23
                }
            ]
        },
        {
            "name" : "Cylinder.008",
            "primitives" : [
                {
                    "attributes" : {
                        "POSITION" : 24,
                        "NORMAL" : 25,
                        "TEXCOORD_0" : 26
                    },
                    "indices" : 27,
                    "material" : 3
                }
            ]
        },
        {
            "name" : "Circle",
            "primitives" : [
                {
                    "attributes" : {
                        "POSITION" : 28,
                        "NORMAL" : 29,
                        "TEXCOORD_0" : 30
                    },
                    "indices" : 31,
                    "material" : 4
                }
            ]
        },
        {
            "name" : "Circle.002",
            "primitives" : [
                {
                    "attributes" : {
                        "POSITION" : 32,
                        "NORMAL" : 33,
                        "TEXCOORD_0" : 34
                    },
                    "indices" : 35,
                    "material" : 1
                }
            ]
        },
        {
            "name" : "Cube.008",
            "primitives" : [
                {
                    "attributes" : {
                        "POSITION" : 36,
                        "NORMAL" : 37,
                        "TEXCOORD_0" : 38
                    },
                    "indices" : 39,
                    "material" : 3
                }
            ]
        },
        {
            "name" : "Cube.005",
            "primitives" : [
                {
                    "attributes" : {
                        "POSITION" : 40,
                        "NORMAL" : 41,
                        "TEXCOORD_0" : 42
                    },
                    "indices" : 43,
                    "material" : 3
                }
            ]
        }
    ],
    "accessors" : [
        {
            "bufferView" : 0,
            "componentType" : 5126,
            "count" : 340,
            "max" : [
                0.9787731766700745,
                4.453869273390865e-09,
                0.9788817763328552
            ],
            "min" : [
                -0.9787731766700745,
                -0.01034292858093977,
                -0.9788818359375
            ],
            "type" : "VEC3"
        },
        {
            "bufferView" : 1,
            "componentType" : 5126,
            "count" : 340,
            "type" : "VEC3"
        },
        {
            "bufferView" : 2,
            "componentType" : 5126,
            "count" : 340,
            "type" : "VEC2"
        },
        {
            "bufferView" : 3,
            "componentType" : 5123,
            "count" : 1380,
            "type" : "SCALAR"
        },
        {
            "bufferView" : 4,
            "componentType" : 5126,
            "count" : 4518,
            "max" : [
                1.1689115762710571,
                -0.26518431305885315,
                1.1593940258026123
            ],
            "min" : [
                -1.1689115762710571,
                -0.3527044951915741,
                -1.1593940258026123
            ],
            "type" : "VEC3"
        },
        {
            "bufferView" : 5,
            "componentType" : 5126,
            "count" : 4518,
            "type" : "VEC3"
        },
        {
            "bufferView" : 6,
            "componentType" : 5126,
            "count" : 4518,
            "type" : "VEC2"
        },
        {
            "bufferView" : 7,
            "componentType" : 5123,
            "count" : 23424,
            "type" : "SCALAR"
        },
        {
            "bufferView" : 8,
            "componentType" : 5126,
            "count" : 7538,
            "max" : [
                1.1688593626022339,
                0.15380047261714935,
                1.496198296546936
            ],
            "min" : [
                -1.1688593626022339,
                -0.4504891335964203,
                -1.496198296546936
            ],
            "type" : "VEC3"
        },
        {
            "bufferView" : 9,
            "componentType" : 5126,
            "count" : 7538,
            "type" : "VEC3"
        },
        {
            "bufferView" : 10,
            "componentType" : 5126,
            "count" : 7538,
            "type" : "VEC2"
        },
        {
            "bufferView" : 11,
            "componentType" : 5123,
            "count" : 33096,
            "type" : "SCALAR"
        },
        {
            "bufferView" : 12,
            "componentType" : 5126,
            "count" : 12115,
            "max" : [
                13.129544258117676,
                1.6842902898788452,
                98.32461547851562
            ],
            "min" : [
                -2.1094977855682373,
                -0.9858773946762085,
                -12.284029006958008
            ],
            "type" : "VEC3"
        },
        {
            "bufferView" : 13,
            "componentType" : 5126,
            "count" : 12115,
            "type" : "VEC3"
        },
        {
            "bufferView" : 14,
            "componentType" : 5126,
            "count" : 12115,
            "type" : "VEC2"
        },
        {
            "bufferView" : 15,
            "componentType" : 5123,
            "count" : 41040,
            "type" : "SCALAR"
        },
        {
            "bufferView" : 16,
            "componentType" : 5126,
            "count" : 352,
            "max" : [
                0.8885287642478943,
                0.8611461520195007,
                0.007508157752454281
            ],
            "min" : [
                -0.8856462836265564,
                -0.9130289554595947,
                -0.001385282608680427
            ],
            "type" : "VEC3"
        },
        {
            "bufferView" : 17,
            "componentType" : 5126,
            "count" : 352,
            "type" : "VEC3"
        },
        {
            "bufferView" : 18,
            "componentType" : 5126,
            "count" : 352,
            "type" : "VEC2"
        },
        {
            "bufferView" : 19,
            "componentType" : 5123,
            "count" : 594,
            "type" : "SCALAR"
        },
        {
            "bufferView" : 20,
            "componentType" : 5126,
            "count" : 920,
            "max" : [
                0.41938158869743347,
                0.7254195213317871,
                0.02873794175684452
            ],
            "min" : [
                -0.4737844467163086,
                -0.8878073692321777,
                -0.015235820785164833
            ],
            "type" : "VEC3"
        },
        {
            "bufferView" : 21,
            "componentType" : 5126,
            "count" : 920,
            "type" : "VEC3"
        },
        {
            "bufferView" : 22,
            "componentType" : 5126,
            "count" : 920,
            "type" : "VEC2"
        },
        {
            "bufferView" : 23,
            "componentType" : 5123,
            "count" : 3780,
            "type" : "SCALAR"
        },
        {
            "bufferView" : 24,
            "componentType" : 5126,
            "count" : 918,
            "max" : [
                0.7919252514839172,
                4.732989311218262,
                1.0625041723251343
            ],
            "min" : [
                -0.7919872999191284,
                -0.9294300079345703,
                -0.5188471078872681
            ],
            "type" : "VEC3"
        },
        {
            "bufferView" : 25,
            "componentType" : 5126,
            "count" : 918,
            "type" : "VEC3"
        },
        {
            "bufferView" : 26,
            "componentType" : 5126,
            "count" : 918,
            "type" : "VEC2"
        },
        {
            "bufferView" : 27,
            "componentType" : 5123,
            "count" : 4608,
            "type" : "SCALAR"
        },
        {
            "bufferView" : 28,
            "componentType" : 5126,
            "count" : 4856,
            "max" : [
                0.9935952425003052,
                0.018836863338947296,
                0.9935951828956604
            ],
            "min" : [
                -0.9935951828956604,
                4.2405449676152784e-06,
                -0.99359530210495
            ],
            "type" : "VEC3"
        },
        {
            "bufferView" : 29,
            "componentType" : 5126,
            "count" : 4856,
            "type" : "VEC3"
        },
        {
            "bufferView" : 30,
            "componentType" : 5126,
            "count" : 4856,
            "type" : "VEC2"
        },
        {
            "bufferView" : 31,
            "componentType" : 5123,
            "count" : 7296,
            "type" : "SCALAR"
        },
        {
            "bufferView" : 32,
            "componentType" : 5126,
            "count" : 3359,
            "max" : [
                1.1598941087722778,
                0.31037700176239014,
                1.1600229740142822
            ],
            "min" : [
                -1.1598941087722778,
                0.1559903919696808,
                -1.1600229740142822
            ],
            "type" : "VEC3"
        },
        {
            "bufferView" : 33,
            "componentType" : 5126,
            "count" : 3359,
            "type" : "VEC3"
        },
        {
            "bufferView" : 34,
            "componentType" : 5126,
            "count" : 3359,
            "type" : "VEC2"
        },
        {
            "bufferView" : 35,
            "componentType" : 5123,
            "count" : 18816,
            "type" : "SCALAR"
        },
        {
            "bufferView" : 36,
            "componentType" : 5126,
            "count" : 11374,
            "max" : [
                1.135870099067688,
                26.645742416381836,
                0.8534729480743408
            ],
            "min" : [
                -1.135870099067688,
                -3.655517101287842,
                -25.782455444335938
            ],
            "type" : "VEC3"
        },
        {
            "bufferView" : 37,
            "componentType" : 5126,
            "count" : 11374,
            "type" : "VEC3"
        },
        {
            "bufferView" : 38,
            "componentType" : 5126,
            "count" : 11374,
            "type" : "VEC2"
        },
        {
            "bufferView" : 39,
            "componentType" : 5123,
            "count" : 59664,
            "type" : "SCALAR"
        },
        {
            "bufferView" : 40,
            "componentType" : 5126,
            "count" : 12153,
            "max" : [
                1.0134028196334839,
                27.19905662536621,
                0.8058054447174072
            ],
            "min" : [
                -1.0134028196334839,
                -3.655519962310791,
                -26.701616287231445
            ],
            "type" : "VEC3"
        },
        {
            "bufferView" : 41,
            "componentType" : 5126,
            "count" : 12153,
            "type" : "VEC3"
        },
        {
            "bufferView" : 42,
            "componentType" : 5126,
            "count" : 12153,
            "type" : "VEC2"
        },
        {
            "bufferView" : 43,
            "componentType" : 5123,
            "count" : 58560,
            "type" : "SCALAR"
        }
    ],
    "bufferViews" : [
        {
            "buffer" : 0,
            "byteLength" : 4080,
            "byteOffset" : 0
        },
        {
            "buffer" : 0,
            "byteLength" : 4080,
            "byteOffset" : 4080
        },
        {
            "buffer" : 0,
            "byteLength" : 2720,
            "byteOffset" : 8160
        },
        {
            "buffer" : 0,
            "byteLength" : 2760,
            "byteOffset" : 10880
        },
        {
            "buffer" : 0,
            "byteLength" : 54216,
            "byteOffset" : 13640
        },
        {
            "buffer" : 0,
            "byteLength" : 54216,
            "byteOffset" : 67856
        },
        {
            "buffer" : 0,
            "byteLength" : 36144,
            "byteOffset" : 122072
        },
        {
            "buffer" : 0,
            "byteLength" : 46848,
            "byteOffset" : 158216
        },
        {
            "buffer" : 0,
            "byteLength" : 90456,
            "byteOffset" : 205064
        },
        {
            "buffer" : 0,
            "byteLength" : 90456,
            "byteOffset" : 295520
        },
        {
            "buffer" : 0,
            "byteLength" : 60304,
            "byteOffset" : 385976
        },
        {
            "buffer" : 0,
            "byteLength" : 66192,
            "byteOffset" : 446280
        },
        {
            "buffer" : 0,
            "byteLength" : 145380,
            "byteOffset" : 512472
        },
        {
            "buffer" : 0,
            "byteLength" : 145380,
            "byteOffset" : 657852
        },
        {
            "buffer" : 0,
            "byteLength" : 96920,
            "byteOffset" : 803232
        },
        {
            "buffer" : 0,
            "byteLength" : 82080,
            "byteOffset" : 900152
        },
        {
            "buffer" : 0,
            "byteLength" : 4224,
            "byteOffset" : 982232
        },
        {
            "buffer" : 0,
            "byteLength" : 4224,
            "byteOffset" : 986456
        },
        {
            "buffer" : 0,
            "byteLength" : 2816,
            "byteOffset" : 990680
        },
        {
            "buffer" : 0,
            "byteLength" : 1188,
            "byteOffset" : 993496
        },
        {
            "buffer" : 0,
            "byteLength" : 11040,
            "byteOffset" : 994684
        },
        {
            "buffer" : 0,
            "byteLength" : 11040,
            "byteOffset" : 1005724
        },
        {
            "buffer" : 0,
            "byteLength" : 7360,
            "byteOffset" : 1016764
        },
        {
            "buffer" : 0,
            "byteLength" : 7560,
            "byteOffset" : 1024124
        },
        {
            "buffer" : 0,
            "byteLength" : 11016,
            "byteOffset" : 1031684
        },
        {
            "buffer" : 0,
            "byteLength" : 11016,
            "byteOffset" : 1042700
        },
        {
            "buffer" : 0,
            "byteLength" : 7344,
            "byteOffset" : 1053716
        },
        {
            "buffer" : 0,
            "byteLength" : 9216,
            "byteOffset" : 1061060
        },
        {
            "buffer" : 0,
            "byteLength" : 58272,
            "byteOffset" : 1070276
        },
        {
            "buffer" : 0,
            "byteLength" : 58272,
            "byteOffset" : 1128548
        },
        {
            "buffer" : 0,
            "byteLength" : 38848,
            "byteOffset" : 1186820
        },
        {
            "buffer" : 0,
            "byteLength" : 14592,
            "byteOffset" : 1225668
        },
        {
            "buffer" : 0,
            "byteLength" : 40308,
            "byteOffset" : 1240260
        },
        {
            "buffer" : 0,
            "byteLength" : 40308,
            "byteOffset" : 1280568
        },
        {
            "buffer" : 0,
            "byteLength" : 26872,
            "byteOffset" : 1320876
        },
        {
            "buffer" : 0,
            "byteLength" : 37632,
            "byteOffset" : 1347748
        },
        {
            "buffer" : 0,
            "byteLength" : 136488,
            "byteOffset" : 1385380
        },
        {
            "buffer" : 0,
            "byteLength" : 136488,
            "byteOffset" : 1521868
        },
        {
            "buffer" : 0,
            "byteLength" : 90992,
            "byteOffset" : 1658356
        },
        {
            "buffer" : 0,
            "byteLength" : 119328,
            "byteOffset" : 1749348
        },
        {
            "buffer" : 0,
            "byteLength" : 145836,
            "byteOffset" : 1868676
        },
        {
            "buffer" : 0,
            "byteLength" : 145836,
            "byteOffset" : 2014512
        },
        {
            "buffer" : 0,
            "byteLength" : 97224,
            "byteOffset" : 2160348
        },
        {
            "buffer" : 0,
            "byteLength" : 117120,
            "byteOffset" : 2257572
        }
    ],
    "buffers" : [
        {
            "byteLength" : 2374692,
            "uri" : "data:application/octet-stream;base64,"
        }
    ]
}
