{
    "asset" : {
        "generator" : "Khronos glTF Blender I/O v1.1.46",
        "version" : "2.0"
    },
    "scene" : 0,
    "scenes" : [
        {
            "name" : "Scene",
            "nodes" : [
                0
            ]
        }
    ],
    "nodes" : [
        {
            "mesh" : 0,
            "name" : "Glass",
            "rotation" : [
                0.7071067690849304,
                0,
                0,
                0.7071067690849304
            ],
            "scale" : [
                1.0390222072601318,
                1.0390222072601318,
                1.0390222072601318
            ],
            "translation" : [
                0,
                0,
                0.2908514738082886
            ]
        }
    ],
    "materials" : [
        {
            "alphaCutoff" : 0.8268608450889587,
            "alphaMode" : "MASK",
            "doubleSided" : true,
            "name" : "Material.001",
            "pbrMetallicRoughness" : {}
        }
    ],
    "meshes" : [
        {
            "name" : "Circle",
            "primitives" : [
                {
                    "attributes" : {
                        "POSITION" : 0,
                        "NORMAL" : 1,
                        "TEXCOORD_0" : 2
                    },
                    "indices" : 3,
                    "material" : 0
                }
            ]
        }
    ],
    "accessors" : [
        {
            "bufferView" : 0,
            "componentType" : 5126,
            "count" : 4856,
            "max" : [
                0.9935952425003052,
                0.018836863338947296,
                0.9935951828956604
            ],
            "min" : [
                -0.9935951828956604,
                4.2405449676152784e-06,
                -0.99359530210495
            ],
            "type" : "VEC3"
        },
        {
            "bufferView" : 1,
            "componentType" : 5126,
            "count" : 4856,
            "type" : "VEC3"
        },
        {
            "bufferView" : 2,
            "componentType" : 5126,
            "count" : 4856,
            "type" : "VEC2"
        },
        {
            "bufferView" : 3,
            "componentType" : 5123,
            "count" : 7296,
            "type" : "SCALAR"
        }
    ],
    "bufferViews" : [
        {
            "buffer" : 0,
            "byteLength" : 58272,
            "byteOffset" : 0
        },
        {
            "buffer" : 0,
            "byteLength" : 58272,
            "byteOffset" : 58272
        },
        {
            "buffer" : 0,
            "byteLength" : 38848,
            "byteOffset" : 116544
        },
        {
            "buffer" : 0,
            "byteLength" : 14592,
            "byteOffset" : 155392
        }
    ],
    "buffers" : [
        {
            "byteLength" : 169984,
            "uri" : "data:application/octet-stream;base64,"
        }
    ]
}
